1.9Hzlow3min_grf.mot
version=1
nRows=12
nColumns 19
inDegrees=yes
endheader
time	1_ground_force_vx	1_ground_force_vy	1_ground_force_vz	1_ground_force_px	1_ground_force_py	1_ground_force_pz	1_ground_torque_x	1_ground_torque_y	1_ground_torque_z	2_ground_force_vx	2_ground_force_vy	2_ground_force_vz	2_ground_force_px	2_ground_force_py	2_ground_force_pz	2_ground_torque_x	2_ground_torque_y	2_ground_torque_z
            3.751500	           22.705992	          765.802697	          -45.748345	           -0.288544	            0.006369	           -0.441827	            0.004662	            0.157234	           -0.009393	           26.286334	          757.166630	           46.426485	           -0.330857	            0.005140	           -0.655911	            0.009012	            0.259599	            0.015918
            3.752000	           23.482423	          774.818355	          -46.216050	           -0.288657	            0.006369	           -0.441701	            0.015147	            0.499786	           -0.029811	           28.127742	          766.196885	           46.410956	           -0.330683	            0.005142	           -0.656375	           -0.000680	           -0.018510	           -0.001121
            3.752500	           23.847101	          782.390703	          -46.459631	           -0.288922	            0.006370	           -0.441960	            0.023732	            0.778607	           -0.046235	           29.604297	          772.463661	           46.338802	           -0.330941	            0.005141	           -0.656245	           -0.010045	           -0.262109	           -0.015723
            3.753000	           23.890231	          789.783994	          -46.978324	           -0.289015	            0.006370	           -0.442091	            0.025530	            0.843993	           -0.050203	           30.702733	          779.649848	           46.270093	           -0.330972	            0.005141	           -0.656387	           -0.011721	           -0.297641	           -0.017664
            3.753500	           23.611787	          798.980409	          -47.626056	           -0.289046	            0.006370	           -0.441887	            0.017620	            0.596235	           -0.035541	           32.174722	          787.205000	           46.390251	           -0.331127	            0.005140	           -0.656202	           -0.011968	           -0.292822	           -0.017256
            3.754000	           23.881967	          806.377480	          -49.016584	           -0.289294	            0.006370	           -0.441936	            0.007976	            0.269302	           -0.016370	           33.372261	          792.917608	           46.503958	           -0.331387	            0.005138	           -0.655970	            0.000431	            0.010251	            0.000601
            3.754500	           24.565282	          814.494514	          -50.129901	           -0.289479	            0.006369	           -0.441869	            0.002190	            0.072618	           -0.004469	           34.701790	          801.024066	           46.813860	           -0.331286	            0.005140	           -0.656260	            0.005005	            0.115520	            0.006751
            3.755000	           25.247332	          823.334577	          -51.698693	           -0.289450	            0.006368	           -0.441583	            0.005535	            0.180504	           -0.011334	           36.459485	          807.291522	           46.835442	           -0.331747	            0.005138	           -0.656083	           -0.000453	           -0.010020	           -0.000581
            3.755500	           25.701615	          831.090777	          -52.767136	           -0.289601	            0.006368	           -0.441625	            0.016148	            0.522170	           -0.033153	           37.742326	          815.396472	           47.520789	           -0.331573	            0.005139	           -0.656296	           -0.012197	           -0.263518	           -0.015358
            3.756000	           26.156823	          839.385975	          -53.420552	           -0.289556	            0.006368	           -0.441502	            0.026590	            0.853272	           -0.054304	           38.702291	          822.028999	           47.637880	           -0.331854	            0.005138	           -0.656167	           -0.025466	           -0.540894	           -0.031346
            3.756500	           26.016250	          847.320390	          -54.028183	           -0.289723	            0.006367	           -0.441294	            0.026929	            0.877039	           -0.055923	           39.848203	          829.031488	           47.474638	           -0.331918	            0.005138	           -0.656288	           -0.029979	           -0.623700	           -0.035716
            3.757000	           26.058484	          855.255824	          -54.865553	           -0.289835	            0.006368	           -0.441483	            0.019247	            0.631706	           -0.040525	           40.567187	          837.505367	           47.410688	           -0.331887	            0.005138	           -0.656413	           -0.023047	           -0.475800	           -0.026935
